<svg xmlns="http://www.w3.org/2000/svg" viewBox="0 0 200 200" width="200" height="200">
  <!-- 树干 -->
  <path d="M100,200 Q100,150 100,100" fill="none" stroke="#3d3d3d" stroke-width="4" />
  
  <!-- 柳树枝条 -->
  <g stroke="#6b8e23" stroke-width="1" fill="none">
    <!-- 左侧柳条 -->
    <path d="M100,100 Q80,120 60,150" />
    <path d="M100,105 Q75,125 50,160" />
    <path d="M100,110 Q70,130 40,170" />
    <path d="M100,115 Q65,135 30,180" />
    <path d="M100,120 Q60,140 20,190" />
    
    <!-- 右侧柳条 -->
    <path d="M100,100 Q120,120 140,150" />
    <path d="M100,105 Q125,125 150,160" />
    <path d="M100,110 Q130,130 160,170" />
    <path d="M100,115 Q135,135 170,180" />
    <path d="M100,120 Q140,140 180,190" />
    
    <!-- 中间柳条 -->
    <path d="M100,95 Q105,110 110,140" />
    <path d="M100,95 Q95,110 90,140" />
    <path d="M100,90 Q110,120 120,160" />
    <path d="M100,90 Q90,120 80,160" />
    <path d="M100,85 Q115,130 130,180" />
    <path d="M100,85 Q85,130 70,180" />
  </g>
</svg> 